<svg width="1083" height="199" viewBox="0 0 1083 199" fill="none" xmlns="http://www.w3.org/2000/svg">
<path d="M46.0629 53.5048C44.9067 54.9913 43.9157 57.1385 43.9157 57.7992C43.9157 62.424 55.4776 67.8746 61.2585 67.8746C64.7271 67.8746 67.2046 66.2229 67.2046 63.9105C67.2046 60.9374 63.2406 54.9913 57.2944 52.3486C54.9821 51.3576 53 50.8621 51.5135 50.8621C49.3663 50.8621 47.5494 51.8531 46.0629 53.5048ZM36.9785 85.2174C32.0234 91.3287 36.6482 124.198 39.4561 134.768C40.9426 140.715 44.5764 144.844 48.0449 144.844C52.009 144.844 60.1023 140.384 60.1023 134.273C60.1023 132.126 59.2765 129.648 56.9641 127.336C49.3663 119.738 51.6787 94.9625 44.4112 86.0433C43.4202 84.7219 41.7685 84.0612 39.9516 84.0612C38.6302 84.0612 37.474 84.5568 36.9785 85.2174ZM147.186 54.661C145.699 55.652 144.873 56.8082 144.873 58.4599C144.873 61.5981 148.837 64.5712 153.462 66.7184C156.931 68.3701 162.381 68.5353 162.877 64.9015V64.0757C162.877 60.4419 160.564 57.3037 155.94 54.9913C153.462 53.67 151.645 53.0093 150.819 53.0093C149.994 53.0093 148.837 53.5048 147.186 54.661ZM107.545 165.49C114.152 179.034 133.642 187.953 143.717 182.337C150.819 178.704 155.444 171.767 157.922 161.691C161.721 146.826 163.868 115.113 157.426 95.1276C155.444 89.1815 152.471 86.3736 148.672 86.3736C147.516 86.3736 146.195 86.5388 145.038 87.0343C137.606 89.5119 140.414 97.2748 142.726 106.69C147.681 126.84 147.681 168.793 139.753 169.454C129.843 170.28 123.897 168.298 123.897 160.37C123.897 152.276 117.785 151.946 113.656 153.598C108.701 155.58 104.902 160.039 107.545 165.49ZM394.484 45.907C387.051 45.907 383.252 50.8621 383.252 59.9464C383.252 64.9015 384.243 70.0218 388.538 70.0218C389.694 70.0218 390.685 69.5263 391.511 68.3701C392.171 67.5442 393.823 66.388 396.631 64.9015C401.091 62.7543 402.577 59.7813 402.577 53.3396C402.577 47.2283 398.943 45.907 394.484 45.907ZM238.729 123.207C234.599 142.366 250.125 146.33 255.906 146.661C280.021 147.982 300.502 129.318 303.145 126.51C304.631 124.858 305.788 124.032 306.613 124.032C307.604 124.032 308.595 125.684 309.421 128.987C312.56 140.715 319.662 147.156 329.407 147.156C342.29 147.156 359.798 136.75 365.909 126.014C370.204 118.417 372.186 116.93 373.012 116.93C373.507 116.93 373.838 117.426 373.838 118.417C373.838 120.068 372.847 129.318 375.489 134.438C378.793 140.715 382.426 142.366 385.4 142.366C389.859 142.366 391.18 132.786 391.346 126.51C391.511 114.287 390.685 94.7973 387.547 91.6591C384.243 88.3557 380.61 86.5388 376.646 86.5388C371.36 86.5388 367.396 89.1815 365.579 94.467C358.642 114.287 345.098 130.474 333.536 131.135C325.278 131.63 324.287 120.894 323.626 118.251C321.644 109.993 320.983 97.6052 316.854 94.7973C315.367 93.8063 312.89 92.4849 309.752 89.1815C301.658 81.0882 291.913 81.914 279.526 84.7219C262.018 88.686 243.353 101.9 238.729 123.207ZM256.897 133.447C250.456 133.447 253.098 116.104 265.982 104.542C275.561 95.9535 287.949 97.2748 290.757 98.1007C305.788 102.23 300.998 114.287 285.802 123.372C272.258 131.465 264.495 133.447 256.897 133.447ZM591.583 50.8621C590.097 52.3486 589.766 54.1655 590.592 56.9734C591.418 59.4509 593.565 62.0936 596.704 64.9015C599.842 67.5442 602.319 67.8746 604.136 69.1959C605.458 70.187 606.449 70.6825 607.274 70.6825C609.422 70.6825 609.091 66.0577 608.926 64.5712C608.1 58.6251 604.632 51.0272 601.494 49.5407C600.172 48.88 598.851 48.5497 597.364 48.5497C595.052 48.5497 593.4 49.0452 591.583 50.8621ZM476.79 116.269C476.79 131.3 487.031 145.339 504.043 145.67C522.047 146 534.269 143.027 565.982 124.693C571.102 121.72 576.718 116.93 578.535 116.93C579.361 116.93 579.856 117.591 580.352 119.242C580.682 120.894 581.343 125.189 582.334 132.291C584.151 145.339 588.445 148.973 595.382 147.982C602.319 146.991 602.485 139.558 600.668 133.777L596.704 120.564C596.538 116.6 595.217 110.984 592.74 103.716C590.757 97.7704 586.793 92.8153 583.655 91.9894C583.49 91.9894 583.49 91.8242 583.325 91.8242H582.829C579.03 91.8242 572.919 96.2838 570.276 99.9176C561.192 112.14 557.723 115.609 530.14 127.005C496.776 140.054 493.968 120.729 493.968 116.6C493.968 108.011 498.923 101.404 508.668 96.449C517.422 91.9894 529.479 93.3108 532.122 94.7973C533.278 95.458 533.939 95.6231 534.269 95.6231C535.756 95.6231 539.72 92.4849 539.72 87.0343C539.72 84.7219 538.894 83.4006 536.582 82.0792C535.426 81.4185 533.278 80.4275 531.627 80.4275C530.305 80.4275 529.314 79.932 528.488 78.941C527.828 77.9499 526.506 77.6196 524.359 77.6196C523.038 77.6196 519.404 77.7848 513.293 78.4455C495.62 80.0972 476.79 92.8153 476.79 116.269ZM782.186 54.9913C780.369 56.4778 779.543 57.7992 779.543 59.2857C779.543 61.4329 781.029 63.2498 784.003 65.0667C788.132 67.8746 791.765 69.1959 795.234 69.1959C798.703 69.1959 800.52 67.8746 800.52 65.397C800.52 62.7543 795.73 56.9734 791.6 54.8261C787.306 52.8441 785.985 52.0183 782.186 54.9913ZM683.414 93.8063C683.414 96.9445 684.57 100.248 687.708 101.734C689.856 102.891 701.913 105.038 712.649 105.038C713.475 115.774 713.805 137.411 714.631 142.531C715.127 146 716.943 148.973 720.412 148.973C722.394 148.973 724.376 148.312 726.358 146.33C729.992 142.697 729.331 138.402 729.331 133.447C729.331 121.555 728.671 113.131 728.671 106.029C731.478 105.699 741.719 105.203 752.455 103.551C758.731 102.56 764.347 100.743 765.503 100.743C766.66 100.743 767.651 100.909 768.146 101.239C769.302 101.9 770.293 105.368 770.954 111.81C772.771 131.63 775.248 146.165 783.672 146.165C788.132 146.165 791.27 144.183 793.087 140.219C795.234 136.255 794.078 133.943 790.94 130.804C789.288 129.153 788.132 125.684 784.498 101.239C782.681 90.3377 779.378 85.7129 774.753 84.8871C769.302 83.8961 744.197 91.1636 728.01 91.1636C728.01 84.2264 726.854 63.7453 726.689 62.0936C725.863 58.1296 722.89 56.9734 720.908 56.9734C718.595 56.9734 717.604 57.7992 716.118 59.2857C710.832 64.0757 712.484 81.4185 712.154 90.8332C705.712 90.8332 699.27 90.0074 693.985 88.686C691.507 88.0253 689.856 87.695 689.03 87.695C687.048 87.695 683.414 89.677 683.414 93.8063ZM1032.45 49.0452C1027.5 52.0183 1026.51 58.7902 1031.3 64.7364C1035.26 69.3611 1039.06 70.8476 1044.51 68.0397C1051.28 64.9015 1049.46 60.9374 1046.66 58.4599C1043.68 55.8172 1042.36 51.0272 1040.55 49.2104C1039.88 48.5497 1038.56 48.0542 1037.08 48.0542C1034.93 48.0542 1033.44 48.3845 1032.45 49.0452ZM876.696 108.506C874.384 119.573 872.072 133.777 882.312 142.366C885.781 145.67 889.249 147.156 892.718 147.156C901.637 147.156 906.427 142.862 911.217 135.264C915.016 129.153 916.172 126.84 916.833 126.84C917.328 126.84 919.145 130.804 923.605 134.438C934.176 142.862 945.903 146.496 957.795 146.661C966.879 146.661 978.441 143.192 984.883 135.925C990.499 129.483 993.472 115.278 987.36 106.524C1000.24 109.663 1012.63 108.011 1016.43 108.011C1017.59 108.011 1018.41 108.672 1018.74 109.663C1020.56 112.966 1021.22 129.813 1022.05 137.411C1022.54 142.366 1025.02 146.661 1032.45 147.652C1036.75 148.147 1041.37 146.661 1041.37 143.522C1041.37 138.567 1033.44 96.6142 1032.62 94.1366C1031.13 89.3467 1027.33 85.8781 1021.88 89.0163C1014.94 93.1456 1011.97 94.6321 995.454 93.9714C986.204 93.6411 977.615 89.677 973.321 89.677C967.87 89.677 965.062 91.9894 965.062 96.449C965.062 103.716 973.982 104.212 974.973 118.086C975.468 124.858 971.009 130.804 958.951 131.465C942.104 132.291 932.854 123.867 923.935 109.828C920.466 104.212 920.136 99.9176 915.346 100.083C911.217 100.248 909.73 103.551 907.418 111.975C905.436 119.077 902.793 132.952 894.865 132.952C891.066 132.952 888.919 129.483 888.919 124.858C888.919 120.068 890.736 111.975 892.388 104.542C893.874 97.6052 894.039 94.467 892.222 92.6501C890.075 90.5029 886.607 90.3377 884.79 91.3287C880 94.1366 878.183 101.239 876.696 108.506Z" fill="#171B36"/>
<path d="M49.5 20.5V184" stroke="#C79607" stroke-width="2"/>
<path d="M149 20.5V184" stroke="#C79607" stroke-width="2"/>
<path d="M387 20.5V184" stroke="#C79607" stroke-width="2"/>
<path d="M594 20.5V184" stroke="#C79607" stroke-width="2"/>
<path d="M783 20.5V184" stroke="#C79607" stroke-width="2"/>
<path d="M1032 20.5V184" stroke="#C79607" stroke-width="2"/>
</svg>
